Genre:Action | Adventure | Comedy | Fantasy
Language:English
IMDb:http://www.imdb.com/title/tt0446029/
Source Video:P2P.Thanks
Source Audio:Imagine.Thanks
..............................................
General
Complete name : Scott.Pilgrim.vs.the.World.2010.TS.XVID.FEEL-FREE
Format : AVI
Format/Info : Audio Video Interleave
File size : 1.22 GiB
Duration : 1h 45mn
Overall bit rate : 1 656 Kbps
...............................................
Video
ID : 0
Format : MPEG-4 Visual
Format profile : AdvancedSimple@L5
Format settings, BVOP : Yes
Format settings, QPel : No
Format settings, GMC : No warppoints
Format settings, Matrix : Default (H.263)
Muxing mode : Packed bitstream
Codec ID : XVID
Codec ID/Hint : XviD
Duration : 1h 45mn
Bit rate : 1 518 Kbps
Width : 652 pixels
Height : 352 pixels
Display aspect ratio : 1.852
Frame rate : 25.000 fps
Resolution : 24 bits
Colorimetry : 4:2:0
Scan type : Progressive
Bits/(Pixel*Frame) : 0.265
Stream size : 1.11 GiB (92%)
Writing library : XviD 1.3.0.dev55
.................................................
Audio
ID : 1
Format : MPEG Audio
Format version : Version 1
Format profile : Layer 3
Codec ID : 55
Codec ID/Hint : MP3
Duration : 1h 45mn
Bit rate mode : Constant
Bit rate : 128 Kbps
Channel(s) : 2 channels
Sampling rate : 44.1 KHz
Resolution : 16 bits
Stream size : 96.2 MiB (8%)
Alignment : Split accross interleaves
Interleave, duration : 40 ms (1.00 video frame)
Interleave, preload duration : 500 ms
..................................................
Plot
Scott Pilgrim must defeat his new girlfriend's seven evil exes in order to win her heart.